<svg xmlns="http://www.w3.org/2000/svg" width="146" height="60" fill="none"><path fill="#000" d="M114.386 59.881c-12.809 0-21.048-8.81-21.048-22.026 0-13.29 8.239-22.1 21.048-22.1 12.808 0 21.048 8.81 21.048 22.1 0 13.29-8.24 22.026-21.048 22.026Zm0-8.437c6.816 0 10.786-5.003 10.786-13.664 0-8.66-3.97-13.588-10.786-13.588-6.816 0-10.786 5.077-10.786 13.663s3.97 13.589 10.786 13.589Zm-33.679 7.69V.15h10.262v58.985H80.707Zm-15.31-48.98V0h10.187v10.154H65.397Zm-.075 48.98V16.501h10.262v42.633H65.322ZM0 59.134V4.704h16.554l12.808 38.153L42.396 4.704H58.8v54.43H48.613l.224-44.724-15.355 44.724h-8.464L9.962 14.709v44.425H0ZM140.402 60c-3.141 0-5.611-2.153-5.611-5.382 0-3.23 2.47-5.383 5.611-5.383 3.14 0 5.598 2.14 5.598 5.37 0 3.242-2.458 5.395-5.598 5.395Zm0-1.114c2.47 0 4.369-1.62 4.369-4.28 0-2.562-1.812-4.27-4.357-4.27-2.495 0-4.382 1.646-4.382 4.282 0 2.56 1.8 4.268 4.37 4.268Zm-2.061-1.608V51.92h2.594c1.117 0 1.8.607 1.8 1.584 0 .594-.323 1.064-.918 1.3.546.086.806.445.806 1.026v.879c0 .247.075.383.199.42v.149h-1.415c-.075-.124-.099-.408-.099-.68v-.62c0-.383-.187-.655-.658-.655h-1.006v1.955h-1.303Zm1.303-2.92h.969c.496 0 .769-.223.769-.668 0-.433-.261-.656-.769-.656h-.969v1.324Z"/></svg>